<?xml version="1.0" standalone="no"?>
<!DOCTYPE svg PUBLIC "-//W3C//DTD SVG 20010904//EN"
 "http://www.w3.org/TR/2001/REC-SVG-20010904/DTD/svg10.dtd">
<svg version="1.0" xmlns="http://www.w3.org/2000/svg"
 width="560.000000pt" height="560.000000pt" viewBox="0 0 560.000000 560.000000"
 preserveAspectRatio="xMidYMid meet">
<metadata>
Created by potrace 1.14, written by Peter Selinger 2001-2017
</metadata>
<g transform="translate(0.000000,560.000000) scale(0.100000,-0.100000)"
fill="#000000" stroke="none">
<path d="M2610 5405 c-177 -28 -355 -82 -469 -139 -32 -17 -87 -32 -140 -40
-105 -16 -172 -48 -230 -111 -79 -86 -105 -185 -77 -294 13 -53 32 -87 89
-165 6 -7 -10 -43 -42 -95 -73 -120 -109 -224 -131 -376 -19 -135 -9 -471 16
-558 8 -25 40 -40 62 -28 17 9 20 28 25 168 7 179 27 275 81 390 61 127 217
345 264 366 11 5 46 0 92 -14 140 -41 500 -37 720 7 41 8 136 40 211 70 74 30
139 54 144 54 5 0 19 -10 33 -22 13 -13 58 -41 100 -63 64 -34 80 -47 99 -85
32 -60 97 -126 155 -156 54 -27 71 -50 88 -114 12 -45 54 -134 148 -313 51
-95 52 -100 52 -180 0 -94 16 -135 43 -107 20 20 53 160 68 284 17 138 6 376
-21 486 -11 47 -39 125 -62 174 l-41 89 17 52 c52 166 -28 321 -177 341 -40 6
-46 10 -65 50 -32 65 -89 99 -168 99 -63 0 -63 0 -115 52 -65 65 -184 125
-317 160 -122 31 -323 40 -452 18z"/>
<path d="M2173 3821 c-139 -40 -258 -129 -251 -187 2 -23 9 -30 31 -32 22 -3
37 6 68 37 82 81 199 116 365 108 113 -5 127 -3 136 23 9 25 -11 49 -50 60
-59 16 -228 11 -299 -9z"/>
<path d="M3125 3829 c-36 -10 -56 -35 -48 -57 11 -28 22 -30 137 -25 166 8
283 -27 365 -108 31 -31 46 -40 68 -37 22 2 29 9 31 32 7 60 -123 154 -264
190 -67 17 -238 20 -289 5z"/>
<path d="M2243 3479 c-79 -23 -112 -133 -57 -198 85 -101 248 -15 213 113 -10
35 -59 86 -84 86 -7 0 -19 2 -27 4 -7 2 -27 0 -45 -5z"/>
<path d="M3286 3480 c-64 -19 -103 -89 -85 -152 27 -97 149 -124 213 -47 51
60 23 174 -47 194 -43 12 -52 13 -81 5z"/>
<path d="M2564 2973 c16 -69 130 -133 236 -133 106 0 220 64 236 133 l6 27
-242 0 -242 0 6 -27z"/>
<path d="M2524 2624 c-17 -7 2 -100 31 -150 107 -182 383 -182 491 1 32 55 47
142 27 150 -17 6 -533 5 -549 -1z"/>
<path d="M2328 1956 c-3 -17 -15 -22 -93 -33 -255 -36 -450 -135 -513 -260
-11 -21 -26 -65 -32 -98 l-13 -60 -86 -43 c-232 -115 -463 -334 -595 -564
l-27 -47 103 -107 c215 -223 472 -406 744 -527 105 -47 208 -87 224 -87 6 0
10 151 10 403 0 221 3 425 6 454 l7 52 67 -34 c62 -31 68 -37 73 -72 4 -21 7
-221 7 -445 l0 -407 38 -11 c75 -21 261 -49 412 -61 418 -32 922 83 1304 298
210 118 352 228 535 409 l133 134 -27 47 c-133 231 -367 453 -596 566 l-86 42
-13 60 c-16 79 -42 128 -97 182 -85 82 -254 148 -448 176 -79 11 -90 16 -93
34 l-3 21 -60 -23 c-119 -47 -218 -67 -364 -72 -166 -6 -271 9 -418 60 -93 32
-96 33 -99 13z m127 -178 c250 -80 526 -71 767 27 l60 24 -4 -187 c-3 -159 -7
-196 -25 -244 -49 -132 -158 -241 -291 -291 -81 -30 -243 -30 -324 0 -132 49
-242 160 -291 291 -18 48 -22 85 -25 245 l-4 188 39 -17 c21 -9 65 -25 98 -36z
m1093 -1209 c-3 -345 -4 -368 -22 -388 -26 -29 -86 -29 -112 0 -18 20 -19 43
-22 353 -2 182 0 355 3 384 l6 52 67 34 67 34 8 -52 c4 -28 6 -216 5 -417z"/>
</g>
</svg>
